<?xml version="1.0" encoding="utf-8"?>
<!-- Svg Vector Icons : http://www.onlinewebfonts.com/icon -->
<!DOCTYPE svg PUBLIC "-//W3C//DTD SVG 1.1//EN" "http://www.w3.org/Graphics/SVG/1.1/DTD/svg11.dtd">
<svg version="1.1" xmlns="http://www.w3.org/2000/svg" xmlns:xlink="http://www.w3.org/1999/xlink" x="0px" y="0px" viewBox="0 0 256 256" enable-background="new 0 0 256 256" xml:space="preserve">
<metadata> Svg Vector Icons : http://www.onlinewebfonts.com/icon </metadata>
<g><g><g><path fill="#000000" d="M21.3,40c-2.2,0.6-6.1,2.9-7.4,4.3c-0.6,0.8-1.7,2.4-2.4,3.7c-1.2,2.2-1.2,2.8-1.4,10L10,65.6l59,30.9l59,31l59-31l59-30.9l-0.1-7.6l-0.1-7.6l-1.6-2.9c-1.8-3.2-3.2-4.6-6.7-6.5l-2.3-1.2l-106.2-0.1C70.5,39.7,22.1,39.8,21.3,40z"/><path fill="#000000" d="M10.1,152.1l0.1,53.6l1.2,2.4c1.8,3.5,3.2,4.9,6.5,6.7l2.9,1.6H128h107.1l2.4-1.2c3.5-1.8,4.9-3.2,6.7-6.5l1.6-2.9l0.1-53.6l0.1-53.6l-4.7,2.5c-10,5.3-94,49.2-98.8,51.7c-6.5,3.2-11.3,4.9-14.4,4.9c-3.1,0-7.9-1.7-14.4-4.9c-4.9-2.5-88.8-46.3-98.8-51.7L10,98.5L10.1,152.1z"/></g></g></g>
</svg>