<?xml version="1.0" encoding="utf-8"?>
<!-- Svg Vector Icons : http://www.onlinewebfonts.com/icon -->
<!DOCTYPE svg PUBLIC "-//W3C//DTD SVG 1.1//EN" "http://www.w3.org/Graphics/SVG/1.1/DTD/svg11.dtd">
<svg version="1.1" xmlns="http://www.w3.org/2000/svg" xmlns:xlink="http://www.w3.org/1999/xlink" x="0px" y="0px" viewBox="0 0 256 256" enable-background="new 0 0 256 256" xml:space="preserve">
<metadata> Svg Vector Icons : http://www.onlinewebfonts.com/icon </metadata>
<g><g><path fill="#000000" d="M246,54.3v147.5c0,24.4-19.8,44.3-44.3,44.3h-28.9v-91.4h30.6l4.6-35.6h-35.2V96.2c0-10.3,2.8-17.2,17.7-17.2l18.7-0.1V47c-3.2-0.5-14.4-1.4-27.4-1.4c-27.2,0-45.9,16.6-45.9,47v26.3h-30.7v35.6H136V246H54.3C29.8,246,10,226.2,10,201.7V54.3C10,29.8,29.8,10,54.3,10h147.5C226.2,10,246,29.8,246,54.3z"/></g></g>
</svg>