<?xml version="1.0" encoding="utf-8"?>
<!-- Svg Vector Icons : http://www.onlinewebfonts.com/icon -->
<!DOCTYPE svg PUBLIC "-//W3C//DTD SVG 1.1//EN" "http://www.w3.org/Graphics/SVG/1.1/DTD/svg11.dtd">
<svg version="1.1" xmlns="http://www.w3.org/2000/svg" xmlns:xlink="http://www.w3.org/1999/xlink" x="0px" y="0px" viewBox="0 0 256 256" enable-background="new 0 0 256 256" xml:space="preserve">
<metadata> Svg Vector Icons : http://www.onlinewebfonts.com/icon </metadata>
<g><g><path fill="#000000" d="M95.1,199.8c-1.6,0.3-2.4,1.1-2.1,2.3c0.2,1.2,1.1,1.6,2.8,1.2c1.6-0.4,2.4-1.1,2.1-2.1C97.7,200,96.8,199.5,95.1,199.8z"/><path fill="#000000" d="M86.4,201c-1.6,0-2.5,0.6-2.5,1.7c0,1.3,0.9,1.9,2.6,1.7c1.6,0,2.5-0.6,2.5-1.7C89,201.4,88.1,200.8,86.4,201z"/><path fill="#000000" d="M74.4,200.5c-0.4,1.1,0.3,1.9,2,2.3c1.5,0.6,2.5,0.3,2.9-0.9c0.3-1.1-0.4-2-2-2.5C75.8,199,74.8,199.4,74.4,200.5z"/><path fill="#000000" d="M233,23c-8.7-8.6-19.1-13-31.3-13H54.2C42.1,10,31.6,14.3,23,23c-8.6,8.7-13,19.1-13,31.3v147.5c0,12.2,4.3,22.6,13,31.3c8.7,8.7,19.1,13,31.3,13h34.4c2.3,0,3.9-0.1,5.1-0.2s2.3-0.8,3.4-2c1.1-1.2,1.7-2.9,1.7-5.2c0-0.3,0-3.8-0.1-10.5c0-6.6-0.1-11.9-0.1-15.8l-3.5,0.6c-2.3,0.4-5.1,0.6-8.5,0.5c-3.4,0-7-0.4-10.7-1.1c-3.7-0.7-7.1-2.2-10.3-4.6c-3.2-2.4-5.4-5.6-6.8-9.4l-1.5-3.5c-1-2.4-2.6-5-4.8-7.8c-2.2-2.9-4.4-4.8-6.7-5.8l-1.1-0.8c-0.7-0.5-1.4-1.1-2-1.9c-0.6-0.7-1.1-1.4-1.4-2.1c-0.3-0.7,0-1.3,0.8-1.8s2.3-0.7,4.5-0.7l3.1,0.5c2,0.4,4.6,1.6,7.6,3.7c3,2,5.5,4.7,7.4,8c2.4,4.2,5.2,7.4,8.5,9.6c3.3,2.2,6.7,3.3,10.1,3.3c3.4,0,6.3-0.3,8.8-0.8c2.5-0.5,4.8-1.3,6.9-2.3c0.9-6.9,3.4-12.1,7.5-15.8c-5.8-0.6-11.1-1.5-15.7-2.8c-4.7-1.2-9.5-3.2-14.4-6c-5-2.8-9.1-6.2-12.4-10.3c-3.3-4.1-6-9.5-8.1-16.1c-2.1-6.7-3.2-14.4-3.2-23c0-12.4,4-23,12.1-31.6c-3.8-9.3-3.4-19.8,1.1-31.4c3-0.9,7.4-0.2,13.2,2.1c5.8,2.3,10.1,4.3,12.8,5.9c2.7,1.6,4.9,3,6.5,4.1c9.5-2.7,19.4-4,29.5-4c10.1,0,20,1.3,29.5,4l5.8-3.7c4-2.5,8.7-4.7,14.1-6.8c5.4-2,9.6-2.6,12.5-1.7c4.6,11.6,5,22,1.2,31.4c8.1,8.7,12.1,19.3,12.1,31.6c0,8.7-1.1,16.4-3.2,23.1c-2.1,6.7-4.8,12.1-8.1,16.1c-3.3,4-7.5,7.4-12.5,10.2c-5,2.8-9.8,4.8-14.4,6c-4.7,1.2-9.9,2.1-15.7,2.8c5.3,4.6,8,11.9,8,21.8v36.7c0,1.7,0.3,3.2,0.8,4.2c0.5,1.1,1.3,1.8,2.5,2.2c1.1,0.4,2.1,0.7,3,0.8c0.9,0.1,2.1,0.1,3.8,0.1h34.4c12.2,0,22.6-4.3,31.3-13c8.7-8.6,13-19.1,13-31.3V54.2C246,42.1,241.7,31.6,233,23z"/><path fill="#000000" d="M56.7,181.8c-0.7,0.5-0.6,1.3,0.3,2.5c1,1,1.9,1.2,2.5,0.5c0.7-0.5,0.6-1.3-0.3-2.5C58.1,181.3,57.3,181.1,56.7,181.8z"/><path fill="#000000" d="M51.6,177.9c-0.3,0.7,0,1.3,1.1,1.9c0.8,0.5,1.5,0.4,2-0.3c0.3-0.7,0-1.3-1.1-1.9C52.6,177.3,52,177.4,51.6,177.9z"/><path fill="#000000" d="M61.5,187.8c-0.9,0.5-0.9,1.4,0,2.8c0.9,1.3,1.8,1.7,2.6,1.1c0.9-0.7,0.9-1.7,0-2.9C63.3,187.4,62.4,187,61.5,187.8z"/><path fill="#000000" d="M66.9,194.7c-0.9,0.8-0.7,1.8,0.6,2.9c1.2,1.2,2.3,1.4,3.1,0.5c0.8-0.8,0.6-1.8-0.6-2.9C68.7,193.9,67.7,193.8,66.9,194.7z"/></g></g>
</svg>