<?xml version="1.0" encoding="utf-8"?>
<!-- Svg Vector Icons : http://www.onlinewebfonts.com/icon -->
<!DOCTYPE svg PUBLIC "-//W3C//DTD SVG 1.1//EN" "http://www.w3.org/Graphics/SVG/1.1/DTD/svg11.dtd">
<svg version="1.1" xmlns="http://www.w3.org/2000/svg" xmlns:xlink="http://www.w3.org/1999/xlink" x="0px" y="0px" viewBox="0 0 256 256" enable-background="new 0 0 256 256" xml:space="preserve">
<metadata> Svg Vector Icons : http://www.onlinewebfonts.com/icon </metadata>
<g><g><g><path fill="#000000" d="M117.4,10.8c-1.3,0.6-2.6,1.7-3.2,2.7c-0.6,0.9-2.8,7-5,13.5l-3.9,11.9l-6,1.9c-3.3,1.1-8.8,3.3-12.2,5l-6.3,3.1l-11.9-6c-7.1-3.5-12.5-5.9-13.4-5.9c-0.8,0-2.4,0.4-3.4,0.8c-2.3,1-12.7,11.1-14.1,13.7c-1.8,3.6-1.5,5,4.9,17.8l5.8,11.7l-3.1,6.4c-1.7,3.5-4,9-5,12.1l-1.8,5.8l-12.4,4.1c-6.8,2.3-13,4.6-13.6,5.1c-2.6,2-2.9,3.7-2.9,13.6c0,8.4,0.1,9.2,1.1,11.1c0.6,1.1,1.8,2.4,2.7,2.9c0.8,0.5,6.9,2.7,13.3,4.9l11.8,3.9l2,6.1c1.1,3.3,3.3,8.7,4.9,11.9l2.9,5.8L43,186.4c-4.9,10-5.8,12.1-5.8,14.1c0,1.3,0.4,3,0.7,3.6c0.4,0.7,3.5,4.1,7,7.6c6.8,6.8,8.5,7.9,11.9,7.1c0.9-0.2,6.7-2.9,12.9-6l11.3-5.6l6.9,3.3c3.8,1.8,9.2,4.1,12.1,5l5.2,1.6l3.7,11.4c5.9,17.9,5.5,17.4,17.8,17.7c14.4,0.3,14.3,0.4,20-16.7l4.1-12.4l5.2-1.6c2.8-0.9,8.3-3.1,12.1-5l7-3.3l11.2,5.6c6.2,3.1,12,5.8,12.9,6c3.4,0.8,5.6-0.4,12-6.7c9.8-9.6,9.8-9.7,1.8-25.7l-5.7-11.4l3.1-6.4c1.7-3.5,3.9-8.7,4.8-11.6c0.9-2.9,2-5.6,2.3-5.9c0.3-0.4,5.9-2.4,12.5-4.5c6.6-2.2,12.5-4.4,13.1-4.9c2.6-2,2.9-3.7,2.9-14c0-10.3-0.3-11.5-3.4-13.6c-0.8-0.5-6.8-2.8-13.4-5l-12-4.1l-2-6c-1.1-3.3-3.3-8.7-4.9-11.9l-3-5.8l5.8-11.5c5.1-10.2,5.7-11.7,5.7-14.2c0-1.5-0.3-3.3-0.7-4.1c-1.2-2.3-12.2-12.8-14.3-13.7c-1.1-0.4-2.6-0.8-3.4-0.8c-0.9,0-6.3,2.4-13.4,5.9l-11.9,6l-5.8-2.9c-3.2-1.6-8.7-3.9-12.1-5.1l-6.3-2.1l-4.2-12.4c-2.3-6.8-4.6-12.9-5.1-13.5c-2.3-2.6-4.5-3.1-13.6-3.1C120.8,9.8,119.2,9.9,117.4,10.8z M135.5,82.7c9.3,1.6,17,5.6,24,12.2c23,22,16.9,60.1-11.7,73.9c-17,8.2-37.3,5.1-50.9-7.9c-6.4-6.1-10.2-12.2-12.8-20.7c-1.2-4.1-1.4-5.3-1.4-12.5c0-7.2,0.2-8.4,1.4-12.5c5.2-17,18.2-28.9,35.2-32.4C123.4,82,131.4,81.9,135.5,82.7z"/></g></g></g>
</svg>