<?xml version="1.0" encoding="utf-8"?>
<!-- Svg Vector Icons : http://www.onlinewebfonts.com/icon -->
<!DOCTYPE svg PUBLIC "-//W3C//DTD SVG 1.1//EN" "http://www.w3.org/Graphics/SVG/1.1/DTD/svg11.dtd">
<svg version="1.1" xmlns="http://www.w3.org/2000/svg" xmlns:xlink="http://www.w3.org/1999/xlink" x="0px" y="0px" viewBox="0 0 256 256" enable-background="new 0 0 256 256" xml:space="preserve">
<metadata> Svg Vector Icons : http://www.onlinewebfonts.com/icon </metadata>
<g><g><path fill="#000000" d="M245.9,68.4c-0.1-5.3-0.4-10.6-1.3-15.4c-1-5.2-2.3-10-4.7-14.7c-2.4-4.8-5.8-9-9.4-12.7c-3.7-3.6-7.9-7-12.7-9.4c-4.7-2.4-9.5-3.7-14.7-4.7c-4.8-0.9-10.1-1.3-15.4-1.3c-1.8,0-3.3,0-7.1-0.1c-3.6,0-6.5,0-8.7,0c-11,0-76.7,0-87.6,0c-2.2,0-5.1,0-8.7,0c-3.8,0-5.3,0.1-7.1,0.1c-5.3,0.1-10.6,0.4-15.4,1.3c-5.2,1-10,2.3-14.7,4.7c-4.8,2.4-9,5.8-12.7,9.4c-3.6,3.7-7,7.9-9.4,12.7c-2.4,4.7-3.7,9.5-4.7,14.7c-0.9,4.8-1.3,10.1-1.3,15.4c0,0.8,0,1.5,0,2.4L10,178.4c0,0.7,0,1.4,0,2.1c0,3.8,0.1,5.3,0.1,7.1c0.1,5.3,0.4,10.6,1.3,15.4c1,5.2,2.3,10,4.7,14.7c2.4,4.8,5.8,9,9.4,12.7c3.7,3.6,7.9,7,12.7,9.4c4.7,2.4,9.5,3.7,14.7,4.7c4.8,0.9,10.1,1.3,15.4,1.3c1.8,0,3.3,0,7.1,0.1c3.6,0,6.5,0,8.7,0c11,0,76.7,0,87.6,0c2.2,0,5.1,0,8.7,0c3.8,0,5.3-0.1,7.1-0.1c5.3-0.1,10.6-0.4,15.4-1.3c5.2-1,10-2.3,14.7-4.7c4.8-2.4,9-5.8,12.7-9.4c3.6-3.7,7-7.9,9.4-12.7c2.4-4.7,3.7-9.5,4.7-14.7c0.9-4.8,1.3-10.1,1.3-15.4c0-1.8,0-3.3,0.1-7.1c0-3.6,0-6.5,0-8.7V84.2c0-2.2,0-5.1,0-8.7C245.9,71.7,245.9,70.2,245.9,68.4z M195.3,96.5c-0.7,54.5-35.6,91.9-87.6,94.2c-21.5,1-37-5.9-50.5-14.5c15.9,2.5,35.5-3.8,46.1-12.8c-15.6-1.5-24.7-9.4-29.1-22.2c4.5,0.8,9.2,0.6,13.5-0.3c-14-4.7-24-13.4-24.6-31.5c3.9,1.8,8,3.5,13.5,3.8c-10.5-6-18.3-27.8-9.4-42.3c15.6,17.1,34.3,31,65.1,32.9c-7.7-33,36.1-50.9,54.4-28.8c7.8-1.5,14-4.4,20.1-7.6c-2.5,7.7-7.3,13-13.2,17.3c6.4-0.9,12.1-2.4,17-4.8C207.6,86.1,201,91.8,195.3,96.5z"/></g></g>
</svg>